<svg width="55" height="60" viewBox="0 0 55 60" fill="none" xmlns="http://www.w3.org/2000/svg">
<path fill-rule="evenodd" clip-rule="evenodd" d="M25.8095 25.6995L26.5308 25.7703L26.542 25.772C26.286 25.7331 26.0443 25.6966 25.8095 25.6995ZM25.4116 30.1191C24.9164 29.912 24.511 29.2095 24.511 29.2095C24.511 29.2095 25.583 29.1963 27.4975 29.1963C29.4119 29.1963 30.4839 29.2095 30.4839 29.2095C30.4839 29.2095 30.0785 29.912 29.5833 30.1191C29.0881 30.3263 28.1493 30.4957 27.4975 30.4957C26.8456 30.4957 25.9069 30.3263 25.4116 30.1191ZM10.2281 59.0827V48.1676V37.2526H27.4975H44.7668V48.1676V59.0827H27.4975H10.2281Z" fill="black"/>
<path fill-rule="evenodd" clip-rule="evenodd" d="M25.6503 0.863747C24.92 0.973677 23.7296 1.26085 23.0048 1.5015C22.2803 1.74241 20.958 2.41134 20.0667 2.98776C19.1755 3.56418 17.8269 4.67075 17.0699 5.44676C16.3126 6.22276 15.2393 7.52763 14.6844 8.34652C14.1292 9.16514 13.3176 10.5446 12.8809 11.4116C12.4441 12.2785 11.6684 14.191 11.157 15.6611C10.6454 17.1316 9.99363 19.4811 9.70823 20.8824C9.3644 22.5717 9.19223 24.4243 9.19794 26.3784C9.20417 28.5583 9.32908 29.6649 9.67759 30.6256C9.93676 31.3403 10.2227 32.1005 10.3128 32.3149C10.4351 32.6059 9.95623 32.9511 8.42173 33.6772C7.15549 34.2765 5.76485 35.2076 4.79803 36.1032C3.93534 36.9026 2.87425 38.1778 2.44005 38.9372C2.00611 39.6965 1.41869 41.2257 1.13511 42.3351C0.699873 44.0381 0.619629 45.217 0.619629 49.8985V55.4443H4.51185H8.40407L8.47211 45.5039L8.54015 35.5634H13.2844H18.0284L17.3096 35.0509C16.9141 34.7689 15.9216 33.9064 15.1041 33.1338C14.2865 32.3609 13.3223 31.1361 12.9616 30.4115C12.5627 29.6108 12.3056 28.6516 12.3056 27.9655C12.3056 27.335 12.5479 26.3534 12.8544 25.7425C13.1561 25.1408 13.6438 24.3851 13.9383 24.0636C14.2328 23.7422 14.5514 23.4789 14.6465 23.4789C14.7415 23.4789 14.9547 23.7767 15.1204 24.1408C15.2864 24.5049 15.4219 25.1234 15.4219 25.5153C15.4219 25.907 15.6299 26.6326 15.8844 27.1274C16.1387 27.6219 17.3506 29.3156 18.5777 30.891C20.3173 33.1244 21.1161 33.9256 22.2053 34.5293C23.5808 35.2918 23.6611 35.3035 27.4975 35.3035C31.3354 35.3035 31.4133 35.2921 32.7923 34.5278C33.9043 33.9116 34.6914 33.1106 36.6232 30.6295C37.9601 28.9122 39.1611 27.1562 39.2918 26.7274C39.4224 26.2986 39.599 25.5296 39.6844 25.0184C39.7696 24.5073 39.9908 23.8815 40.176 23.6281C40.4822 23.2091 40.6047 23.3009 41.5201 24.631C42.3379 25.8191 42.548 26.3776 42.6363 27.5991C42.7251 28.8288 42.6264 29.3374 42.0956 30.3845C41.7386 31.0888 40.7619 32.3118 39.9254 33.1018C39.0889 33.8918 38.0808 34.7689 37.6853 35.0509L36.9665 35.5634H41.7105H46.4548L46.5228 45.5039L46.5908 55.4443H50.4831H54.3753V49.8085C54.3753 45.5002 54.2766 43.771 53.9561 42.4669C53.7258 41.5287 53.1727 40.0593 52.7273 39.2017C52.2819 38.3441 51.3174 37.0486 50.5838 36.3228C49.8502 35.5969 48.7377 34.7076 48.1121 34.3461C47.4863 33.9849 46.4135 33.4789 45.7282 33.2219C44.7647 32.8604 44.5235 32.6605 44.6645 32.3398C44.7645 32.1116 45.0693 31.2946 45.3415 30.5238C45.71 29.4809 45.8367 28.4141 45.8367 26.3529C45.8367 24.5811 45.6443 22.6384 45.3023 20.9591C45.0083 19.5154 44.3495 17.1316 43.8379 15.6611C43.3265 14.191 42.5509 12.2785 42.1141 11.4116C41.6773 10.5446 40.8657 9.16514 40.3105 8.34652C39.7556 7.52763 38.6823 6.22276 37.925 5.44676C37.168 4.67075 35.8026 3.55326 34.8905 2.96333C33.9785 2.3734 32.4676 1.6686 31.5335 1.39702C30.5992 1.12545 29.1919 0.849454 28.4064 0.783704C27.6208 0.717954 26.3805 0.754077 25.6503 0.863747ZM19.5769 21.0607C19.5769 21.7489 19.7748 22.2278 20.2747 22.7499C20.9011 23.4043 21.1478 23.4789 22.6849 23.4789H24.3975L25.9398 21.9191L27.4824 20.3593L29.0551 21.9191L30.6278 23.4789H32.3251C33.8458 23.4789 34.0949 23.403 34.7202 22.7499C35.2201 22.2278 35.418 21.7489 35.418 21.0607C35.418 20.5326 35.3969 20.1004 35.3969 20.1004C35.3969 20.1004 36.2547 20.305 36.6938 20.5552C37.1911 20.8385 37.4929 21.2185 37.4939 21.5631C37.4947 21.8671 37.3332 22.2507 37.1348 22.4152C36.9366 22.58 36.6912 23.3838 36.59 24.2014C36.4357 25.4444 36.1877 25.9738 35.0773 27.433C34.2494 28.5209 33.73 29.5362 33.73 29.5362C33.73 29.5362 33.4703 28.4282 33.3444 28.0788C33.2361 27.7785 33.1673 27.276 32.9553 26.8662C32.7232 26.4163 32.2339 26.0174 31.7218 25.8597C31.3468 25.7442 30.9744 25.7045 29.4451 25.6995C28.9257 25.7194 28.06 25.8597 27.4408 25.8597C27.1193 25.8597 26.8242 25.8149 26.5459 25.7726L26.542 25.772L26.5308 25.7703L25.8095 25.6995C23.8618 25.6995 23.1296 25.7826 22.5171 26.3958C22.0214 26.8919 21.7672 27.4676 21.6672 28.32L21.5246 29.5362L20.0605 27.6121C18.8441 26.0138 18.5636 25.4457 18.405 24.2585C18.3 23.4724 18.0531 22.5984 17.8568 22.3165C17.6602 22.0347 17.4994 21.6174 17.4994 21.3892C17.4994 21.161 17.8794 20.7852 18.3434 20.5539C18.8075 20.3229 19.5769 20.112 19.5769 20.112V21.0607ZM31.7177 29.6784C31.419 28.959 30.9316 28.2152 30.6345 28.0253C30.3374 27.8353 29.3348 27.6212 28.4064 27.5494C27.478 27.478 26.2509 27.5016 25.6796 27.6022C25.1083 27.7028 24.4827 27.8831 24.2893 28.0029C24.0958 28.123 23.7185 28.7036 23.451 29.2932C23.1832 29.8832 22.9617 30.5763 22.9586 30.8333C22.955 31.134 23.3466 31.4796 24.0566 31.8021C24.8738 32.1732 25.7521 32.305 27.4408 32.3092C28.9068 32.3128 30.0593 32.1738 30.667 31.9196C31.1871 31.7021 31.7584 31.4029 31.9366 31.2551C32.1919 31.043 32.1454 30.7083 31.7177 29.6784Z" fill="black"/>
</svg>
